<svg width="116" height="45" viewBox="0 0 116 45" fill="none" xmlns="http://www.w3.org/2000/svg">
<path d="M10.9198 29.17C8.90245 29.17 7.07778 28.7167 5.44578 27.81C3.83645 26.9033 2.55578 25.5773 1.60378 23.832C0.651781 22.064 0.175781 19.956 0.175781 17.508C0.175781 14.0627 0.799115 11.0253 2.04578 8.396C3.31511 5.76667 5.02645 3.738 7.17978 2.31C9.35578 0.881998 11.7584 0.167998 14.3878 0.167998C16.4051 0.167998 18.2184 0.621332 19.8278 1.528C21.4598 2.43467 22.7518 3.772 23.7038 5.54C24.6558 7.28533 25.1318 9.382 25.1318 11.83C25.1318 15.2753 24.4971 18.3127 23.2278 20.942C21.9811 23.5713 20.2698 25.6 18.0938 27.028C15.9404 28.456 13.5491 29.17 10.9198 29.17ZM11.2598 25.158C13.0278 25.158 14.5804 24.614 15.9178 23.526C17.2778 22.438 18.3204 20.9307 19.0458 19.004C19.7711 17.0547 20.1338 14.856 20.1338 12.408C20.1338 9.71067 19.5671 7.67067 18.4338 6.288C17.3004 4.88267 15.8384 4.18 14.0478 4.18C12.3024 4.18 10.7611 4.724 9.42378 5.812C8.08645 6.87733 7.04378 8.38466 6.29578 10.334C5.54778 12.2607 5.17378 14.4593 5.17378 16.93C5.17378 19.6273 5.74045 21.6787 6.87378 23.084C8.00711 24.4667 9.46912 25.158 11.2598 25.158Z" fill="white"/>
<path d="M29.4716 29.17C28.6102 29.17 27.9982 28.7167 27.6356 27.81C27.2956 26.9033 27.1256 25.4527 27.1256 23.458C27.1256 20.5113 27.5449 17.712 28.3836 15.06C28.5876 14.4027 28.9162 13.9267 29.3696 13.632C29.8456 13.3147 30.5029 13.156 31.3416 13.156C31.7949 13.156 32.1122 13.2127 32.2936 13.326C32.4749 13.4393 32.5656 13.6547 32.5656 13.972C32.5656 14.3347 32.3956 15.1507 32.0556 16.42C31.8289 17.3267 31.6476 18.12 31.5116 18.8C31.3756 19.48 31.2622 20.3187 31.1716 21.316C31.9196 19.3667 32.7582 17.78 33.6876 16.556C34.6169 15.332 35.5236 14.4593 36.4076 13.938C37.3142 13.4167 38.1416 13.156 38.8896 13.156C40.3629 13.156 41.0996 13.8927 41.0996 15.366C41.0996 15.6607 40.9976 16.3747 40.7936 17.508C40.6122 18.4147 40.5216 18.9813 40.5216 19.208C40.5216 20.0013 40.8049 20.398 41.3716 20.398C42.0062 20.398 42.8222 19.8993 43.8196 18.902C44.1142 18.6073 44.4202 18.46 44.7376 18.46C45.0322 18.46 45.2589 18.596 45.4176 18.868C45.5989 19.1173 45.6896 19.4573 45.6896 19.888C45.6896 20.7267 45.4629 21.384 45.0096 21.86C44.3749 22.5173 43.6269 23.084 42.7656 23.56C41.9269 24.0133 41.0316 24.24 40.0796 24.24C38.8782 24.24 37.9602 23.934 37.3256 23.322C36.7136 22.71 36.4076 21.8827 36.4076 20.84C36.4076 20.5 36.4416 20.16 36.5096 19.82C36.5549 19.3667 36.5776 19.0607 36.5776 18.902C36.5776 18.5393 36.4529 18.358 36.2036 18.358C35.8636 18.358 35.4102 18.7433 34.8436 19.514C34.2996 20.262 33.7556 21.2593 33.2116 22.506C32.6676 23.7527 32.2256 25.0673 31.8856 26.45C31.6362 27.5153 31.3416 28.2407 31.0016 28.626C30.6842 28.9887 30.1742 29.17 29.4716 29.17Z" fill="white"/>
<path d="M46.9842 10.912C46.0322 10.912 45.3182 10.6967 44.8422 10.266C44.3662 9.81267 44.1282 9.18933 44.1282 8.396C44.1282 7.60267 44.4342 6.94533 45.0462 6.424C45.6809 5.88 46.4629 5.608 47.3922 5.608C48.2309 5.608 48.9109 5.812 49.4322 6.22C49.9536 6.628 50.2142 7.206 50.2142 7.954C50.2142 8.86067 49.9196 9.586 49.3302 10.13C48.7409 10.6513 47.9589 10.912 46.9842 10.912ZM46.7122 29.17C45.2389 29.17 44.1622 28.6487 43.4822 27.606C42.8249 26.5633 42.4962 25.1807 42.4962 23.458C42.4962 22.438 42.6209 21.1347 42.8702 19.548C43.1422 17.9387 43.4822 16.4427 43.8902 15.06C44.0942 14.3347 44.3662 13.836 44.7062 13.564C45.0462 13.292 45.5902 13.156 46.3382 13.156C47.4942 13.156 48.0722 13.5413 48.0722 14.312C48.0722 14.8787 47.8569 16.1933 47.4262 18.256C46.8822 20.7493 46.6102 22.438 46.6102 23.322C46.6102 24.002 46.7009 24.5233 46.8822 24.886C47.0636 25.2487 47.3696 25.43 47.8002 25.43C48.2082 25.43 48.7182 25.1467 49.3302 24.58C49.9422 24.0133 50.7582 23.118 51.7782 21.894C52.0502 21.5767 52.3562 21.418 52.6962 21.418C52.9909 21.418 53.2176 21.554 53.3762 21.826C53.5576 22.098 53.6482 22.472 53.6482 22.948C53.6482 23.8547 53.4329 24.5573 53.0022 25.056C50.7582 27.7987 48.6616 29.17 46.7122 29.17Z" fill="white"/>
<path d="M68.3054 21.486C68.6001 21.486 68.8267 21.6333 68.9854 21.928C69.1667 22.2 69.2574 22.5513 69.2574 22.982C69.2574 23.5033 69.1781 23.9113 69.0194 24.206C68.8607 24.5007 68.6114 24.7613 68.2714 24.988L61.7434 29.374C60.8821 34.066 59.7487 37.7493 58.3434 40.424C56.9607 43.1213 55.1927 44.47 53.0394 44.47C51.8834 44.47 50.9427 44.1073 50.2174 43.382C49.4921 42.6793 49.1294 41.75 49.1294 40.594C49.1294 39.5287 49.3674 38.4407 49.8434 37.33C50.3421 36.2193 51.2487 34.9387 52.5634 33.488C53.9007 32.06 55.7821 30.4167 58.2074 28.558L58.3094 27.776C58.4681 26.9373 58.6494 25.736 58.8534 24.172C58.4001 25.804 57.7654 27.0507 56.9494 27.912C56.1334 28.7507 55.2721 29.17 54.3654 29.17C53.3454 29.17 52.5067 28.7053 51.8494 27.776C51.2147 26.824 50.8974 25.6453 50.8974 24.24C50.8974 22.54 51.0107 20.9873 51.2374 19.582C51.4641 18.154 51.8381 16.6467 52.3594 15.06C52.5861 14.38 52.9034 13.8927 53.3114 13.598C53.7194 13.3033 54.3654 13.156 55.2494 13.156C55.7481 13.156 56.0881 13.2353 56.2694 13.394C56.4734 13.5527 56.5754 13.7907 56.5754 14.108C56.5754 14.2893 56.4507 14.9013 56.2014 15.944C55.9747 16.7827 55.7934 17.542 55.6574 18.222C55.4761 19.1513 55.3174 20.0467 55.1814 20.908C55.0454 21.7467 54.9774 22.438 54.9774 22.982C54.9774 23.8433 55.2154 24.274 55.6914 24.274C56.0314 24.274 56.4507 23.934 56.9494 23.254C57.4707 22.574 58.0147 21.5427 58.5814 20.16C59.1707 18.7773 59.7374 17.0773 60.2814 15.06C60.4627 14.38 60.7347 13.8927 61.0974 13.598C61.4827 13.3033 62.0494 13.156 62.7974 13.156C63.3187 13.156 63.6814 13.224 63.8854 13.36C64.0894 13.496 64.1914 13.7227 64.1914 14.04C64.1914 14.6067 63.8967 16.556 63.3074 19.888L62.4234 25.362C64.1687 24.0473 65.8687 22.846 67.5234 21.758C67.8181 21.5767 68.0787 21.486 68.3054 21.486ZM53.4134 41.172C53.9801 41.172 54.6147 40.5147 55.3174 39.2C56.0201 37.8853 56.7227 35.698 57.4254 32.638C55.6801 34.1113 54.4107 35.4487 53.6174 36.65C52.8467 37.874 52.4614 38.9393 52.4614 39.846C52.4614 40.2313 52.5294 40.5487 52.6654 40.798C52.8241 41.0473 53.0734 41.172 53.4134 41.172Z" fill="white"/>
<path d="M84.5069 18.562C84.8016 18.562 85.0283 18.7093 85.1869 19.004C85.3456 19.2987 85.4249 19.6727 85.4249 20.126C85.4249 21.214 85.0963 21.86 84.4389 22.064C83.0789 22.54 81.5829 22.812 79.9509 22.88C79.5203 24.784 78.6703 26.314 77.4009 27.47C76.1316 28.6033 74.6923 29.17 73.0829 29.17C71.7229 29.17 70.5556 28.8413 69.5809 28.184C68.6289 27.5267 67.9036 26.654 67.4049 25.566C66.9063 24.478 66.6569 23.2993 66.6569 22.03C66.6569 20.3073 66.9856 18.7773 67.6429 17.44C68.3003 16.08 69.2069 15.026 70.3629 14.278C71.5189 13.5073 72.7996 13.122 74.2049 13.122C75.9276 13.122 77.3103 13.7227 78.3529 14.924C79.4183 16.1027 80.0416 17.5647 80.2229 19.31C81.2883 19.242 82.5576 19.0153 84.0309 18.63C84.2123 18.5847 84.3709 18.562 84.5069 18.562ZM73.3549 25.566C74.0803 25.566 74.7036 25.2713 75.2249 24.682C75.7689 24.0927 76.1316 23.2427 76.3129 22.132C75.6103 21.656 75.0663 21.0327 74.6809 20.262C74.3183 19.4913 74.1369 18.6753 74.1369 17.814C74.1369 17.4513 74.1709 17.0887 74.2389 16.726H74.0689C73.1623 16.726 72.4029 17.168 71.7909 18.052C71.2016 18.9133 70.9069 20.1373 70.9069 21.724C70.9069 22.9707 71.1449 23.9227 71.6209 24.58C72.1196 25.2373 72.6976 25.566 73.3549 25.566Z" fill="white"/>
<path d="M84.9208 29.17C84.0595 29.17 83.4474 28.7167 83.0848 27.81C82.7448 26.9033 82.5748 25.4527 82.5748 23.458C82.5748 20.5113 82.9941 17.712 83.8328 15.06C84.0368 14.4027 84.3654 13.9267 84.8188 13.632C85.2948 13.3147 85.9521 13.156 86.7908 13.156C87.2441 13.156 87.5614 13.2127 87.7428 13.326C87.9241 13.4393 88.0148 13.6547 88.0148 13.972C88.0148 14.3347 87.8448 15.1507 87.5048 16.42C87.2781 17.3267 87.0968 18.12 86.9608 18.8C86.8248 19.4573 86.7114 20.2847 86.6208 21.282C87.2328 19.514 87.9581 18.018 88.7968 16.794C89.6581 15.57 90.5308 14.6633 91.4148 14.074C92.3214 13.462 93.1714 13.156 93.9648 13.156C94.7581 13.156 95.3134 13.3373 95.6308 13.7C95.9708 14.0627 96.1408 14.618 96.1408 15.366C96.1408 16.0913 95.9254 17.406 95.4948 19.31C95.3134 20.126 95.1888 20.738 95.1208 21.146C96.2541 18.358 97.5121 16.3293 98.8948 15.06C100.277 13.7907 101.569 13.156 102.771 13.156C104.244 13.156 104.981 13.8927 104.981 15.366C104.981 16.25 104.731 17.848 104.233 20.16C103.802 22.132 103.587 23.4353 103.587 24.07C103.587 24.9767 103.915 25.43 104.573 25.43C105.026 25.43 105.559 25.158 106.171 24.614C106.805 24.0473 107.644 23.1407 108.687 21.894C108.959 21.5767 109.265 21.418 109.605 21.418C109.899 21.418 110.126 21.554 110.285 21.826C110.466 22.098 110.557 22.472 110.557 22.948C110.557 23.8547 110.341 24.5573 109.911 25.056C108.936 26.2573 107.882 27.2433 106.749 28.014C105.638 28.7847 104.369 29.17 102.941 29.17C101.785 29.17 100.912 28.8413 100.323 28.184C99.7335 27.504 99.4388 26.5293 99.4388 25.26C99.4388 24.6253 99.5974 23.492 99.9148 21.86C100.209 20.432 100.357 19.446 100.357 18.902C100.357 18.5393 100.232 18.358 99.9828 18.358C99.6881 18.358 99.2688 18.7433 98.7248 19.514C98.1808 20.262 97.6368 21.2593 97.0928 22.506C96.5488 23.7527 96.1068 25.0673 95.7668 26.45C95.5175 27.538 95.2228 28.2633 94.8828 28.626C94.5654 28.9887 94.0441 29.17 93.3188 29.17C92.5708 29.17 92.0041 28.8187 91.6188 28.116C91.2561 27.3907 91.0748 26.518 91.0748 25.498C91.0748 24.6367 91.1881 23.39 91.4148 21.758C91.5961 20.3073 91.6868 19.3553 91.6868 18.902C91.6868 18.5393 91.5621 18.358 91.3128 18.358C90.9728 18.358 90.5421 18.766 90.0208 19.582C89.4994 20.398 88.9895 21.4407 88.4908 22.71C88.0148 23.9793 87.6294 25.226 87.3348 26.45C87.0854 27.5153 86.7908 28.2407 86.4508 28.626C86.1334 28.9887 85.6235 29.17 84.9208 29.17Z" fill="white"/>
<path d="M112.5 10.912C111.548 10.912 110.834 10.6967 110.358 10.266C109.882 9.81267 109.644 9.18933 109.644 8.396C109.644 7.60267 109.95 6.94533 110.562 6.424C111.196 5.88 111.978 5.608 112.908 5.608C113.746 5.608 114.426 5.812 114.948 6.22C115.469 6.628 115.73 7.206 115.73 7.954C115.73 8.86067 115.435 9.586 114.846 10.13C114.256 10.6513 113.474 10.912 112.5 10.912ZM109.236 29.17C108.51 29.17 108.012 29.0227 107.74 28.728C107.468 28.4333 107.332 27.9687 107.332 27.334C107.332 27.1527 107.354 26.8353 107.4 26.382C107.762 22.234 108.363 18.46 109.202 15.06C109.383 14.3573 109.678 13.87 110.086 13.598C110.516 13.3033 111.196 13.156 112.126 13.156C113.1 13.156 113.588 13.5527 113.588 14.346C113.588 14.4593 113.565 14.6747 113.52 14.992C112.5 19.8427 111.888 23.9113 111.684 27.198C111.638 27.9233 111.423 28.4333 111.038 28.728C110.652 29.0227 110.052 29.17 109.236 29.17Z" fill="white"/>
</svg>
